<mxfile host="app.diagrams.net" modified="2023-11-13T12:58:01.722Z" agent="Mozilla/5.0 (Windows NT 10.0; Win64; x64) AppleWebKit/537.36 (KHTML, like Gecko) Chrome/119.0.0.0 Safari/537.36" etag="WE8aWRZaFLBTpYPTWFK6" version="22.1.0" type="device">
  <diagram id="7_QdmfNpHsET02V4nxjg" name="Page-2">
    <mxGraphModel dx="1290" dy="1726" grid="1" gridSize="10" guides="1" tooltips="1" connect="1" arrows="1" fold="1" page="1" pageScale="1" pageWidth="827" pageHeight="1169" math="0" shadow="0">
      <root>
        <mxCell id="0" />
        <mxCell id="1" parent="0" />
        <mxCell id="JlbnD0Iyih-8Eknnlu3p-202" value="«system»&lt;br style=&quot;border-color: var(--border-color); font-weight: 400;&quot;&gt;loop platform" style="swimlane;whiteSpace=wrap;html=1;startSize=40;fillColor=#66CC00;" vertex="1" parent="1">
          <mxGeometry y="-40" width="1310" height="1150" as="geometry" />
        </mxCell>
        <mxCell id="JlbnD0Iyih-8Eknnlu3p-159" value="«subsystem»&lt;br style=&quot;border-color: var(--border-color); font-weight: 400;&quot;&gt;&lt;b style=&quot;border-color: var(--border-color);&quot;&gt;Back-end&lt;/b&gt;" style="swimlane;whiteSpace=wrap;html=1;startSize=30;" vertex="1" parent="JlbnD0Iyih-8Eknnlu3p-202">
          <mxGeometry x="240" y="45" width="1060" height="985" as="geometry" />
        </mxCell>
        <mxCell id="JlbnD0Iyih-8Eknnlu3p-173" value="«subsystem»&lt;br&gt;Web contents management services" style="swimlane;whiteSpace=wrap;html=1;startSize=50;" vertex="1" parent="JlbnD0Iyih-8Eknnlu3p-159">
          <mxGeometry x="16" y="305" width="745" height="275" as="geometry" />
        </mxCell>
        <mxCell id="JlbnD0Iyih-8Eknnlu3p-174" value="«component»&lt;br style=&quot;border-color: var(--border-color);&quot;&gt;&lt;b&gt;CMS&lt;/b&gt;" style="html=1;dropTarget=0;whiteSpace=wrap;fillColor=#FFFF00;" vertex="1" parent="JlbnD0Iyih-8Eknnlu3p-173">
          <mxGeometry x="20" y="70" width="180" height="90" as="geometry" />
        </mxCell>
        <mxCell id="JlbnD0Iyih-8Eknnlu3p-175" value="" style="shape=module;jettyWidth=8;jettyHeight=4;" vertex="1" parent="JlbnD0Iyih-8Eknnlu3p-174">
          <mxGeometry x="1" width="20" height="20" relative="1" as="geometry">
            <mxPoint x="-27" y="7" as="offset" />
          </mxGeometry>
        </mxCell>
        <mxCell id="JlbnD0Iyih-8Eknnlu3p-176" value="«component»&lt;br style=&quot;border-color: var(--border-color);&quot;&gt;&lt;b&gt;Broadcast services&lt;br&gt;(SMS,EMails&lt;br&gt;&lt;/b&gt;" style="html=1;dropTarget=0;whiteSpace=wrap;fillColor=#FFFF00;" vertex="1" parent="JlbnD0Iyih-8Eknnlu3p-173">
          <mxGeometry x="20" y="170" width="180" height="90" as="geometry" />
        </mxCell>
        <mxCell id="JlbnD0Iyih-8Eknnlu3p-177" value="" style="shape=module;jettyWidth=8;jettyHeight=4;" vertex="1" parent="JlbnD0Iyih-8Eknnlu3p-176">
          <mxGeometry x="1" width="20" height="20" relative="1" as="geometry">
            <mxPoint x="-27" y="7" as="offset" />
          </mxGeometry>
        </mxCell>
        <mxCell id="JlbnD0Iyih-8Eknnlu3p-178" value="«component»&lt;br style=&quot;border-color: var(--border-color);&quot;&gt;&lt;b&gt;Accounts management&lt;/b&gt;" style="html=1;dropTarget=0;whiteSpace=wrap;fillColor=#FFFF00;" vertex="1" parent="JlbnD0Iyih-8Eknnlu3p-173">
          <mxGeometry x="224" y="70" width="180" height="90" as="geometry" />
        </mxCell>
        <mxCell id="JlbnD0Iyih-8Eknnlu3p-179" value="" style="shape=module;jettyWidth=8;jettyHeight=4;" vertex="1" parent="JlbnD0Iyih-8Eknnlu3p-178">
          <mxGeometry x="1" width="20" height="20" relative="1" as="geometry">
            <mxPoint x="-27" y="7" as="offset" />
          </mxGeometry>
        </mxCell>
        <mxCell id="JlbnD0Iyih-8Eknnlu3p-180" value="«component»&lt;br style=&quot;border-color: var(--border-color);&quot;&gt;&lt;b&gt;SEO&lt;/b&gt;" style="html=1;dropTarget=0;whiteSpace=wrap;fillColor=#FFFF00;" vertex="1" parent="JlbnD0Iyih-8Eknnlu3p-173">
          <mxGeometry x="224" y="170" width="180" height="90" as="geometry" />
        </mxCell>
        <mxCell id="JlbnD0Iyih-8Eknnlu3p-181" value="" style="shape=module;jettyWidth=8;jettyHeight=4;" vertex="1" parent="JlbnD0Iyih-8Eknnlu3p-180">
          <mxGeometry x="1" width="20" height="20" relative="1" as="geometry">
            <mxPoint x="-27" y="7" as="offset" />
          </mxGeometry>
        </mxCell>
        <mxCell id="JlbnD0Iyih-8Eknnlu3p-182" value="«component»&lt;br style=&quot;border-color: var(--border-color);&quot;&gt;&lt;b&gt;Banners management&lt;/b&gt;" style="html=1;dropTarget=0;whiteSpace=wrap;fillColor=#FFFF00;" vertex="1" parent="JlbnD0Iyih-8Eknnlu3p-173">
          <mxGeometry x="434" y="70" width="180" height="90" as="geometry" />
        </mxCell>
        <mxCell id="JlbnD0Iyih-8Eknnlu3p-183" value="" style="shape=module;jettyWidth=8;jettyHeight=4;" vertex="1" parent="JlbnD0Iyih-8Eknnlu3p-182">
          <mxGeometry x="1" width="20" height="20" relative="1" as="geometry">
            <mxPoint x="-27" y="7" as="offset" />
          </mxGeometry>
        </mxCell>
        <mxCell id="JlbnD0Iyih-8Eknnlu3p-184" value="«component»&lt;br style=&quot;border-color: var(--border-color);&quot;&gt;&lt;b&gt;Financial services&lt;br&gt;&lt;/b&gt;(reconcllation)" style="html=1;dropTarget=0;whiteSpace=wrap;fillColor=#FFFF00;" vertex="1" parent="JlbnD0Iyih-8Eknnlu3p-159">
          <mxGeometry x="30" y="605" width="225" height="95" as="geometry" />
        </mxCell>
        <mxCell id="JlbnD0Iyih-8Eknnlu3p-185" value="" style="shape=module;jettyWidth=8;jettyHeight=4;" vertex="1" parent="JlbnD0Iyih-8Eknnlu3p-184">
          <mxGeometry x="1" width="20" height="20" relative="1" as="geometry">
            <mxPoint x="-27" y="7" as="offset" />
          </mxGeometry>
        </mxCell>
        <mxCell id="JlbnD0Iyih-8Eknnlu3p-186" value="«component»&lt;br style=&quot;border-color: var(--border-color);&quot;&gt;&lt;b&gt;Payments processor&lt;/b&gt;" style="html=1;dropTarget=0;whiteSpace=wrap;fillColor=#FFFF00;" vertex="1" parent="JlbnD0Iyih-8Eknnlu3p-159">
          <mxGeometry x="290" y="605" width="230" height="95" as="geometry" />
        </mxCell>
        <mxCell id="JlbnD0Iyih-8Eknnlu3p-187" value="" style="shape=module;jettyWidth=8;jettyHeight=4;" vertex="1" parent="JlbnD0Iyih-8Eknnlu3p-186">
          <mxGeometry x="1" width="20" height="20" relative="1" as="geometry">
            <mxPoint x="-27" y="7" as="offset" />
          </mxGeometry>
        </mxCell>
        <mxCell id="JlbnD0Iyih-8Eknnlu3p-188" value="«component»&lt;br style=&quot;border-color: var(--border-color);&quot;&gt;&lt;b&gt;Sales management&lt;br&gt;(sales workflow)&lt;br&gt;&lt;/b&gt;" style="html=1;dropTarget=0;whiteSpace=wrap;fillColor=#FFFF00;" vertex="1" parent="JlbnD0Iyih-8Eknnlu3p-159">
          <mxGeometry x="540" y="605" width="230" height="90" as="geometry" />
        </mxCell>
        <mxCell id="JlbnD0Iyih-8Eknnlu3p-189" value="" style="shape=module;jettyWidth=8;jettyHeight=4;" vertex="1" parent="JlbnD0Iyih-8Eknnlu3p-188">
          <mxGeometry x="1" width="20" height="20" relative="1" as="geometry">
            <mxPoint x="-27" y="7" as="offset" />
          </mxGeometry>
        </mxCell>
        <mxCell id="JlbnD0Iyih-8Eknnlu3p-160" value="«subsystem»&lt;br style=&quot;border-color: var(--border-color); font-weight: 400;&quot;&gt;insurance services" style="swimlane;whiteSpace=wrap;html=1;startSize=35;" vertex="1" parent="JlbnD0Iyih-8Eknnlu3p-159">
          <mxGeometry x="15" y="40" width="745" height="255" as="geometry" />
        </mxCell>
        <mxCell id="JlbnD0Iyih-8Eknnlu3p-161" value="«component»&lt;br&gt;&lt;b&gt;Agents management&lt;/b&gt;" style="html=1;dropTarget=0;whiteSpace=wrap;fillColor=#FFFF00;" vertex="1" parent="JlbnD0Iyih-8Eknnlu3p-160">
          <mxGeometry x="15" y="55" width="211" height="90" as="geometry" />
        </mxCell>
        <mxCell id="JlbnD0Iyih-8Eknnlu3p-162" value="" style="shape=module;jettyWidth=8;jettyHeight=4;" vertex="1" parent="JlbnD0Iyih-8Eknnlu3p-161">
          <mxGeometry x="1" width="20" height="20" relative="1" as="geometry">
            <mxPoint x="-27" y="7" as="offset" />
          </mxGeometry>
        </mxCell>
        <mxCell id="JlbnD0Iyih-8Eknnlu3p-163" value="«component»&lt;br style=&quot;border-color: var(--border-color);&quot;&gt;&lt;b&gt;Insurance quotes&lt;/b&gt;" style="html=1;dropTarget=0;whiteSpace=wrap;fillColor=#FFFF00;" vertex="1" parent="JlbnD0Iyih-8Eknnlu3p-160">
          <mxGeometry x="15" y="155" width="215" height="90" as="geometry" />
        </mxCell>
        <mxCell id="JlbnD0Iyih-8Eknnlu3p-164" value="" style="shape=module;jettyWidth=8;jettyHeight=4;" vertex="1" parent="JlbnD0Iyih-8Eknnlu3p-163">
          <mxGeometry x="1" width="20" height="20" relative="1" as="geometry">
            <mxPoint x="-27" y="7" as="offset" />
          </mxGeometry>
        </mxCell>
        <mxCell id="JlbnD0Iyih-8Eknnlu3p-165" value="«component»&lt;br style=&quot;border-color: var(--border-color);&quot;&gt;&lt;b&gt;Membership management&lt;/b&gt;" style="html=1;dropTarget=0;whiteSpace=wrap;fillColor=#FFFF00;" vertex="1" parent="JlbnD0Iyih-8Eknnlu3p-160">
          <mxGeometry x="260" y="55" width="240" height="90" as="geometry" />
        </mxCell>
        <mxCell id="JlbnD0Iyih-8Eknnlu3p-166" value="" style="shape=module;jettyWidth=8;jettyHeight=4;" vertex="1" parent="JlbnD0Iyih-8Eknnlu3p-165">
          <mxGeometry x="1" width="20" height="20" relative="1" as="geometry">
            <mxPoint x="-27" y="7" as="offset" />
          </mxGeometry>
        </mxCell>
        <mxCell id="JlbnD0Iyih-8Eknnlu3p-167" value="«component»&lt;br style=&quot;border-color: var(--border-color);&quot;&gt;&lt;b&gt;Policy management&lt;/b&gt;" style="html=1;dropTarget=0;whiteSpace=wrap;fillColor=#FFFF00;" vertex="1" parent="JlbnD0Iyih-8Eknnlu3p-160">
          <mxGeometry x="260" y="155" width="240" height="90" as="geometry" />
        </mxCell>
        <mxCell id="JlbnD0Iyih-8Eknnlu3p-168" value="" style="shape=module;jettyWidth=8;jettyHeight=4;" vertex="1" parent="JlbnD0Iyih-8Eknnlu3p-167">
          <mxGeometry x="1" width="20" height="20" relative="1" as="geometry">
            <mxPoint x="-27" y="7" as="offset" />
          </mxGeometry>
        </mxCell>
        <mxCell id="JlbnD0Iyih-8Eknnlu3p-169" value="«component»&lt;br style=&quot;border-color: var(--border-color);&quot;&gt;&lt;b&gt;Billing&amp;nbsp;&lt;/b&gt;" style="html=1;dropTarget=0;whiteSpace=wrap;fillColor=#FFFF00;" vertex="1" parent="JlbnD0Iyih-8Eknnlu3p-160">
          <mxGeometry x="510" y="55" width="222" height="90" as="geometry" />
        </mxCell>
        <mxCell id="JlbnD0Iyih-8Eknnlu3p-170" value="" style="shape=module;jettyWidth=8;jettyHeight=4;" vertex="1" parent="JlbnD0Iyih-8Eknnlu3p-169">
          <mxGeometry x="1" width="20" height="20" relative="1" as="geometry">
            <mxPoint x="-27" y="7" as="offset" />
          </mxGeometry>
        </mxCell>
        <mxCell id="JlbnD0Iyih-8Eknnlu3p-171" value="«component»&lt;br style=&quot;border-color: var(--border-color);&quot;&gt;&lt;b&gt;Pricing calculator&lt;/b&gt;" style="html=1;dropTarget=0;whiteSpace=wrap;fillColor=#FFFF00;" vertex="1" parent="JlbnD0Iyih-8Eknnlu3p-160">
          <mxGeometry x="510" y="155" width="222" height="90" as="geometry" />
        </mxCell>
        <mxCell id="JlbnD0Iyih-8Eknnlu3p-172" value="" style="shape=module;jettyWidth=8;jettyHeight=4;" vertex="1" parent="JlbnD0Iyih-8Eknnlu3p-171">
          <mxGeometry x="1" width="20" height="20" relative="1" as="geometry">
            <mxPoint x="-27" y="7" as="offset" />
          </mxGeometry>
        </mxCell>
        <mxCell id="JlbnD0Iyih-8Eknnlu3p-205" value="«component»&lt;br style=&quot;border-color: var(--border-color);&quot;&gt;&lt;b&gt;Security&lt;/b&gt;" style="html=1;dropTarget=0;whiteSpace=wrap;fillColor=#FFFF00;" vertex="1" parent="JlbnD0Iyih-8Eknnlu3p-159">
          <mxGeometry x="810" y="95" width="210" height="90" as="geometry" />
        </mxCell>
        <mxCell id="JlbnD0Iyih-8Eknnlu3p-206" value="" style="shape=module;jettyWidth=8;jettyHeight=4;" vertex="1" parent="JlbnD0Iyih-8Eknnlu3p-205">
          <mxGeometry x="1" width="20" height="20" relative="1" as="geometry">
            <mxPoint x="-27" y="7" as="offset" />
          </mxGeometry>
        </mxCell>
        <mxCell id="JlbnD0Iyih-8Eknnlu3p-207" value="«component»&lt;br style=&quot;border-color: var(--border-color);&quot;&gt;&lt;b&gt;Monitor and analytics&lt;/b&gt;" style="html=1;dropTarget=0;whiteSpace=wrap;fillColor=#FFFF00;" vertex="1" parent="JlbnD0Iyih-8Eknnlu3p-159">
          <mxGeometry x="810" y="205" width="210" height="90" as="geometry" />
        </mxCell>
        <mxCell id="JlbnD0Iyih-8Eknnlu3p-208" value="" style="shape=module;jettyWidth=8;jettyHeight=4;" vertex="1" parent="JlbnD0Iyih-8Eknnlu3p-207">
          <mxGeometry x="1" width="20" height="20" relative="1" as="geometry">
            <mxPoint x="-27" y="7" as="offset" />
          </mxGeometry>
        </mxCell>
        <mxCell id="JlbnD0Iyih-8Eknnlu3p-209" value="«component»&lt;br style=&quot;border-color: var(--border-color);&quot;&gt;&lt;b&gt;Notifications &amp;amp; alerts&lt;/b&gt;" style="html=1;dropTarget=0;whiteSpace=wrap;fillColor=#FFFF00;" vertex="1" parent="JlbnD0Iyih-8Eknnlu3p-159">
          <mxGeometry x="810" y="315" width="210" height="90" as="geometry" />
        </mxCell>
        <mxCell id="JlbnD0Iyih-8Eknnlu3p-210" value="" style="shape=module;jettyWidth=8;jettyHeight=4;" vertex="1" parent="JlbnD0Iyih-8Eknnlu3p-209">
          <mxGeometry x="1" width="20" height="20" relative="1" as="geometry">
            <mxPoint x="-27" y="7" as="offset" />
          </mxGeometry>
        </mxCell>
        <mxCell id="JlbnD0Iyih-8Eknnlu3p-211" value="«component»&lt;br style=&quot;border-color: var(--border-color);&quot;&gt;&lt;b&gt;Auditing&lt;/b&gt;" style="html=1;dropTarget=0;whiteSpace=wrap;fillColor=#FFFF00;" vertex="1" parent="JlbnD0Iyih-8Eknnlu3p-159">
          <mxGeometry x="810" y="435" width="210" height="90" as="geometry" />
        </mxCell>
        <mxCell id="JlbnD0Iyih-8Eknnlu3p-212" value="" style="shape=module;jettyWidth=8;jettyHeight=4;" vertex="1" parent="JlbnD0Iyih-8Eknnlu3p-211">
          <mxGeometry x="1" width="20" height="20" relative="1" as="geometry">
            <mxPoint x="-27" y="7" as="offset" />
          </mxGeometry>
        </mxCell>
        <mxCell id="JlbnD0Iyih-8Eknnlu3p-204" value="«subsystem»&lt;br&gt;Infrastructure services" style="swimlane;whiteSpace=wrap;html=1;startSize=35;" vertex="1" parent="JlbnD0Iyih-8Eknnlu3p-159">
          <mxGeometry x="790" y="40" width="240" height="930" as="geometry" />
        </mxCell>
        <mxCell id="JlbnD0Iyih-8Eknnlu3p-190" value="Vertical Container" style="swimlane;whiteSpace=wrap;html=1;" vertex="1" parent="JlbnD0Iyih-8Eknnlu3p-159">
          <mxGeometry x="15" y="715" width="755" height="140" as="geometry" />
        </mxCell>
        <mxCell id="JlbnD0Iyih-8Eknnlu3p-191" value="«API»&lt;br&gt;&lt;b&gt;Quote request&lt;/b&gt;" style="html=1;dropTarget=0;whiteSpace=wrap;fillColor=#FFFF00;" vertex="1" parent="JlbnD0Iyih-8Eknnlu3p-190">
          <mxGeometry x="10" y="35" width="180" height="90" as="geometry" />
        </mxCell>
        <mxCell id="JlbnD0Iyih-8Eknnlu3p-192" value="" style="shape=module;jettyWidth=8;jettyHeight=4;" vertex="1" parent="JlbnD0Iyih-8Eknnlu3p-191">
          <mxGeometry x="1" width="20" height="20" relative="1" as="geometry">
            <mxPoint x="-27" y="7" as="offset" />
          </mxGeometry>
        </mxCell>
        <mxCell id="JlbnD0Iyih-8Eknnlu3p-193" value="«API»&lt;br style=&quot;border-color: var(--border-color);&quot;&gt;&lt;b&gt;Online policy issuance&lt;/b&gt;" style="html=1;dropTarget=0;whiteSpace=wrap;fillColor=#FFFF00;" vertex="1" parent="JlbnD0Iyih-8Eknnlu3p-190">
          <mxGeometry x="200" y="35" width="180" height="90" as="geometry" />
        </mxCell>
        <mxCell id="JlbnD0Iyih-8Eknnlu3p-194" value="" style="shape=module;jettyWidth=8;jettyHeight=4;" vertex="1" parent="JlbnD0Iyih-8Eknnlu3p-193">
          <mxGeometry x="1" width="20" height="20" relative="1" as="geometry">
            <mxPoint x="-27" y="7" as="offset" />
          </mxGeometry>
        </mxCell>
        <mxCell id="JlbnD0Iyih-8Eknnlu3p-195" value="«API»&lt;br style=&quot;border-color: var(--border-color);&quot;&gt;&lt;b&gt;SMS Gateway&lt;/b&gt;" style="html=1;dropTarget=0;whiteSpace=wrap;fillColor=#FFFF00;" vertex="1" parent="JlbnD0Iyih-8Eknnlu3p-190">
          <mxGeometry x="565" y="35" width="180" height="90" as="geometry" />
        </mxCell>
        <mxCell id="JlbnD0Iyih-8Eknnlu3p-196" value="" style="shape=module;jettyWidth=8;jettyHeight=4;" vertex="1" parent="JlbnD0Iyih-8Eknnlu3p-195">
          <mxGeometry x="1" width="20" height="20" relative="1" as="geometry">
            <mxPoint x="-27" y="7" as="offset" />
          </mxGeometry>
        </mxCell>
        <mxCell id="JlbnD0Iyih-8Eknnlu3p-197" value="«API»&lt;br style=&quot;border-color: var(--border-color);&quot;&gt;&lt;b&gt;Payment gatway&lt;/b&gt;" style="html=1;dropTarget=0;whiteSpace=wrap;fillColor=#FFFF00;" vertex="1" parent="JlbnD0Iyih-8Eknnlu3p-190">
          <mxGeometry x="385" y="35" width="180" height="90" as="geometry" />
        </mxCell>
        <mxCell id="JlbnD0Iyih-8Eknnlu3p-198" value="" style="shape=module;jettyWidth=8;jettyHeight=4;" vertex="1" parent="JlbnD0Iyih-8Eknnlu3p-197">
          <mxGeometry x="1" width="20" height="20" relative="1" as="geometry">
            <mxPoint x="-27" y="7" as="offset" />
          </mxGeometry>
        </mxCell>
        <mxCell id="JlbnD0Iyih-8Eknnlu3p-2" value="«subsystem»&lt;br style=&quot;border-color: var(--border-color); font-weight: 400;&quot;&gt;&lt;b style=&quot;border-color: var(--border-color);&quot;&gt;front-end&lt;/b&gt;" style="swimlane;whiteSpace=wrap;html=1;startSize=40;fillColor=#FFFFFF;" vertex="1" parent="JlbnD0Iyih-8Eknnlu3p-202">
          <mxGeometry x="20" y="50" width="200" height="980" as="geometry" />
        </mxCell>
        <mxCell id="JlbnD0Iyih-8Eknnlu3p-1" value="«Web-app»&lt;br&gt;&lt;b&gt;public website&lt;/b&gt;" style="html=1;whiteSpace=wrap;fillColor=#00CC00;" vertex="1" parent="JlbnD0Iyih-8Eknnlu3p-2">
          <mxGeometry x="10" y="80" width="180" height="50" as="geometry" />
        </mxCell>
        <mxCell id="JlbnD0Iyih-8Eknnlu3p-3" value="«Web-app»&lt;br style=&quot;border-color: var(--border-color);&quot;&gt;&lt;b&gt;adminstratior wepapp&lt;/b&gt;" style="html=1;whiteSpace=wrap;fillColor=#00CC00;" vertex="1" parent="JlbnD0Iyih-8Eknnlu3p-2">
          <mxGeometry x="10" y="160" width="180" height="50" as="geometry" />
        </mxCell>
        <mxCell id="JlbnD0Iyih-8Eknnlu3p-6" value="«Web-app»&lt;br style=&quot;border-color: var(--border-color);&quot;&gt;&lt;b&gt;Member webapp&lt;/b&gt;" style="html=1;whiteSpace=wrap;fillColor=#00CC00;" vertex="1" parent="JlbnD0Iyih-8Eknnlu3p-2">
          <mxGeometry x="10" y="230" width="180" height="50" as="geometry" />
        </mxCell>
        <mxCell id="JlbnD0Iyih-8Eknnlu3p-5" value="«Web-app»&lt;br style=&quot;border-color: var(--border-color);&quot;&gt;&lt;b&gt;agents wepapp&lt;/b&gt;" style="html=1;whiteSpace=wrap;fillColor=#00CC00;" vertex="1" parent="JlbnD0Iyih-8Eknnlu3p-2">
          <mxGeometry x="10" y="320" width="180" height="50" as="geometry" />
        </mxCell>
        <mxCell id="JlbnD0Iyih-8Eknnlu3p-4" value="«Web-app»&lt;br style=&quot;border-color: var(--border-color);&quot;&gt;&lt;b&gt;Reporting webapp&lt;/b&gt;" style="html=1;whiteSpace=wrap;fillColor=#00CC00;" vertex="1" parent="JlbnD0Iyih-8Eknnlu3p-2">
          <mxGeometry x="10" y="405" width="180" height="45" as="geometry" />
        </mxCell>
        <mxCell id="JlbnD0Iyih-8Eknnlu3p-214" value="«Mobile-app»&lt;br&gt;&lt;b&gt;Customer App&lt;/b&gt;" style="html=1;whiteSpace=wrap;fillColor=#99FF33;" vertex="1" parent="JlbnD0Iyih-8Eknnlu3p-2">
          <mxGeometry x="10" y="710" width="180" height="60" as="geometry" />
        </mxCell>
        <mxCell id="JlbnD0Iyih-8Eknnlu3p-213" value="«Mobile-App»&lt;br&gt;&lt;b&gt;Sales Agents&lt;/b&gt;" style="html=1;whiteSpace=wrap;fillColor=#99FF33;" vertex="1" parent="JlbnD0Iyih-8Eknnlu3p-2">
          <mxGeometry x="10" y="610" width="180" height="70" as="geometry" />
        </mxCell>
      </root>
    </mxGraphModel>
  </diagram>
</mxfile>
